<?xml version="1.0" encoding="UTF-8"?>
<svg id="Layer_2" xmlns="http://www.w3.org/2000/svg" viewBox="0 0 1105.64 227.87">
  <defs>
    <style>
      .cls-1 {
        fill: #fff;
      }
    </style>
  </defs>
  <g id="Layer_1-2" data-name="Layer_1">
    <g>
      <path class="cls-1" d="M398.52,122.7c-.07,19.73-3.7,38.68-12.84,56.31-14.52,27.99-37.61,43.96-68.88,47.85-15.44,1.92-30.82,1.21-45.87-3.14-12.19-3.53-23.16-9.38-32.66-17.85-14.65-13.06-23.61-29.51-28.82-48.2-3.65-13.11-5.01-26.51-4.56-40.08.58-17.65,4.74-34.49,11.5-50.79,6.09-14.69,12.48-29.23,21.45-42.43,3.37-4.95,7.36-9.51,11.35-14,3.38-3.79,7.48-2.68,8.99,2.21,4.76,15.48,9.48,30.97,14.21,46.46.52,1.71,1.02,3.42,1.56,5.12,1.11,3.52,3.91,5.23,7.61,4.94,6.53-.51,13.06-1.24,19.6-1.23,6.87,0,13.74.71,20.59,1.23,3.79.29,6.49-1.24,7.62-4.89,4.86-15.73,9.66-31.47,14.48-47.2.48-1.58.98-3.16,1.46-4.74,1.32-4.31,5.34-5.32,8.59-2.25,6.46,6.13,11.45,13.38,15.88,21,9.88,16.98,17.73,34.9,23.47,53.68,3.78,12.35,5.32,25.08,5.26,38ZM282.98,161.41c-1.93-6.11-3.61-11.53-5.36-16.93-2.65-8.16-7.39-14.95-14.36-19.92-9.26-6.62-18.76-12.9-28.17-19.31-.32-.22-.81-.19-1.22-.28-.07.47-.29.97-.18,1.39.92,3.65,1.91,7.28,2.86,10.92,2.52,9.59,4.96,19.21,9.55,28.1,2.42,4.69,5.76,8.45,10.86,10.18,4.68,1.59,9.41,3.12,14.22,4.24,3.69.86,7.54,1.05,11.8,1.6ZM320.31,161.08c1.27,0,2.11.06,2.94,0,7.96-.64,15.68-2.23,23.08-5.36,4.65-1.96,8.35-4.97,10.47-9.53,2.21-4.79,4.4-9.63,5.97-14.65,2.55-8.13,4.59-16.41,6.82-24.63.15-.57.04-1.22.05-1.83-.63.19-1.36.23-1.88.58-7.9,5.33-15.72,10.78-23.68,16.03-6.88,4.54-12.87,10-16.13,17.62-2.97,6.95-5.05,14.28-7.63,21.79ZM301.77,184.76c-2.59,0-5.18-.05-7.77.02-2.02.05-4,2.08-3.71,3.9.37,2.26,2.07,1.44,3.46,1.28,1.97-.22,2.71.52,2.96,2.54.19,1.55.34,3.22,1.04,4.56,1.63,3.17,6.25,3.15,7.92,0,.62-1.17.84-2.63.95-3.99.2-2.61.91-3.24,3.43-3.12.99.05,2-.48,3.01-.74-.36-1.08-.47-2.39-1.17-3.17-.65-.72-1.92-1.16-2.95-1.23-2.38-.17-4.77-.06-7.16-.05Z"/>
      <path class="cls-1" d="M551.27,171.27c-.31,2.41-.37,4.56-.9,6.59-.41,1.58-1.5,2.98-1.11,4.75.18.83.35,1.67.56,2.73-1.73.8-1.61,2.6-1.57,4.41.04,2.24.62,4.66-2.26,5.96-.4.18-.06,2.01-.06,3.08.17.01.34.02.51.04-.31.37-.86.71-.9,1.1-.26,2.68-.47,5.36-.59,8.05-.13,3.03-.05,6.08-.26,9.11-.15,2.22-1.91,3.4-3.98,2.73-1.78-.58-3.46-1.46-5.41-2.3-.12.21-.54.93-.93,1.6-1.91-.18-2.73-3.37-4.89-2.02-1.86-.73-3.46-1.48-5.14-1.99-1.53-.47-2.71-1.17-3.5-2.64-.66-1.21-1.52-2.33-2.4-3.4-1.36-1.66-2.64-3.28-.8-5.42-1.79-.68-2.42-1.64-1.52-3.03-1.9-2.11-2.47-4.67-3.15-7.18-.06-.23.09-.65-.03-.72-4.07-2.6-3.77-7.32-5.42-11.08-.32-.72-.62-1.49-.71-2.27-.11-.98-.23-2.05.05-2.97.72-2.36-.76-4.19-1.26-6.25,0-.03-.57.08-.3.04-.54-1.34-1.02-2.52-1.48-3.72-.09-.23-.1-.51-.11-.76-.04-1.02.11-1.98-1.33-2.41-1.11-.33-1.96-3.92-1.46-5.14.96-2.32.87-2.5-1.7-3.27.17-.4.34-.8.51-1.2-.39-.05-.74-.09-1.15-.15,1.4-2.77,1.07-5.4-.11-8.17-.36.39-.65.69-1.1,1.17-.26-1.03-.7-1.88-.62-2.67.16-1.45-.16-2.54-1.29-3.48-.22-.18-.08-1,.12-1.41.18-.36.68-.56,1.04-.82-.49-.23-.97-.48-1.47-.69-.22-.09-.48-.1-.76-.15.49-.98.94-1.87,1.38-2.76-.12-.08-.23-.17-.35-.25-.43.32-.87.64-1.3.97-.09-.11-.19-.2-.23-.31-.33-1.02-.53-2.1-1-3.05-.62-1.28-.23-3.04.91-3.9.31-.23.43-.89.42-1.34-.02-.77-.23-1.54-.4-2.62-.39.62-.62.97-.84,1.32-.16.02-.32.03-.48.05-.16-1.84-.19-3.7-.51-5.51-.34-1.89-.96-3.74-1.45-5.61-.32.02-.64.03-.96.05-.31,3.37-.61,6.74-.92,10.11-.03.31,0,.64-.08.94-.63,2.24-1.29,4.48-1.92,6.72-.13.44-.06,1-.31,1.34-1.48,2-1.99,3.94-.7,6.36.34.64-.76,2.08-1.29,3.11-.46.91-1.08,1.73-1.57,2.63-.25.45-.2,1.21-.55,1.44-1.94,1.31-1.58,3.18-1.3,4.99.09.58.58,1.1.74,1.4-.94,1.9-1.93,3.83-2.84,5.8-.77,1.66-1.11,3.35-.22,5.12.2.38.28.96.15,1.35-.8,2.3-1.73,4.56-2.5,6.87-.32.97-.34,2.04-.72,2.91-.51.75-1.3,1.45-1.47,2.27-.46,2.25-.08,4.88-1.11,6.76-1.47,2.69-1,5.73-2.36,8.36-.56,1.09-.42,2.54-.69,3.8-.15.7.4,1.81-1.05,1.91-.2.01-.31.94-.51,1.43-1.71,4.11-1.19,8.51-1.64,12.78-.31,2.89-.86,5.75-1.36,8.62-.12.69-.53,1.32-.73,2-.14.45-.17.94-.29,1.71-1.05.87-2.36,1.74-4.24.57-.59-.37-1.68.15-2.52.04-.72-.09-1.39-.5-2.09-.77.03-.19.07-.37.1-.56-.47.14-.98.46-1.41.38-1.92-.37-3.81-.86-5.71-1.32-.5-.12-1.01-.25-1.47-.47-1.23-.61-2.42-1.28-4.11-2.17,0-2.55-.05-5.75.02-8.94.04-2.31.26-4.61.32-6.92.01-.47-.27-1.04-.59-1.41-1.3-1.46-2.4-2.89,0-4.89h-2.39c.29-.9.51-1.57.73-2.25.14-.44.52-.99.37-1.31-.88-1.93-.54-3.82-.4-5.83.09-1.31-1.28-2.69-1.9-4.08-.28-.62-.54-1.35-.48-2,.16-1.96.48-3.9.76-6.03-.4.18-.7.31-1.25.56.33-2.23-.97-4.34.39-6.53.39-.63-.12-1.82-.18-2.75-.1-1.62-.11-3.25-.27-4.87-.06-.57-.45-1.1-.85-2.01.93-2.56.13-6.01-1.81-6.3.18-3.52-1.3-6.97-.23-10.62.31-1.07-.85-2.53-1.2-3.84-.22-.83-.4-1.77-.25-2.6.32-1.71.27-3.25-.9-4.67-.33-.4-.26-1.09-.49-1.6-.27-.6-.65-1.14-.99-1.71-.12-.2-.38-.42-.35-.6.26-1.91.6-3.81.85-5.72.07-.53.08-1.17-.15-1.62-2.06-4.01-2.62-8.4-3.33-12.75-.16-.97-.32-1.95-.47-2.9.48-.39.94-.76,1.51-1.22-2.06-1-2.29-2.31-1.12-4.17-2.44-3.74-2.66-7.56-.6-11.93-1.15.34-1.65.48-2.09.61-.74-1.54,1.39-2.98-.26-4.8-1.08-1.19,1.25-3.8-.97-4.93.37-1.26.71-2.33,1-3.42.06-.23.03-.57-.1-.76-1.93-2.92-3.23-7.57-2.67-10.86.75-4.4-.12-8.7-.57-13.02-.96-9.2-2.11-18.38-2.94-27.6-.25-2.79.03-5.7.55-8.46.26-1.42,1.56-2.66,2.55-4.22.45,1.04.75,1.75,1.18,2.74.69-1.09,1.19-1.89,1.86-2.96.28,1.68.51,3.05.77,4.66,1.16-.95,2.16-1.77,2.87-2.35.84.32,1.45.58,2.06.79.64.22,1.29.39,1.93.58-.02.19-.05.37-.07.56.2-.23.42-.45.6-.7,1.83-2.64,2.29-2.67,4.52-.36.22.23.5.54.76.56,2.59.21,3.03,2.36,3.16,4.12.75,9.69,1.26,19.39,1.88,29.08.22,3.49.61,6.98.75,10.48.11,2.81-.23,5.65-.05,8.46.23,3.66.84,7.3,1.18,10.96.17,1.83.05,3.68.17,5.52.04.53.46,1.04.71,1.56.13.27.37.53.4.81.29,2.55.5,5.12.83,7.66.32,2.43.74,4.86,1.14,7.28.72,4.42,1.45,8.84,2.17,13.26.04.26.11.61-.02.78-2.28,2.92.14,5.11,1.25,7.41.58,1.21,1.15,2.27.33,3.44-.74,1.07.59,1.17.69,1.8.54,3.51,1.14,7.01,1.58,10.54.6,4.78,1.13,9.58,1.59,14.37.09.98-.26,2.01-.41,3.05,2.43.64.12,3.11,1.84,4.71.91-2.19,1.75-4.19,2.55-6.21.08-.2.05-.52-.07-.7-.76-1.21-.6-1.96.56-2.61.26-.14.59-.3.7-.54,1.1-2.44,2.17-4.9,3.3-7.49-.5-.08-1.05-.16-1.99-.3.2-1.09.4-2.16.66-3.53,0-.93-.27-2.33.05-3.58,1.48-5.76,3.16-11.48,4.68-17.23.29-1.11.22-2.33.29-3.5.02-.39-.21-.87-.05-1.15,2.89-5.18,2.69-11.11,4.08-16.65,1.18-4.73,1.94-9.56,2.9-14.34.12-.62.36-1.21.61-2.04.5.66.85,1.12,1.44,1.9v-5.09c-.42.31-.78.58-1.46,1.08,1.39-5.41,2.69-10.46,3.99-15.51.26-1.02.55-2.05.81-3.07.45-1.69,1.7-2.09,3.19-1.77,1.22.26,2.39.78,3.51,1.17,0,.6-.19,1.29.07,1.67.18.26,1.03.24,1.5.08,1-.32,1.98-.76,2.91-1.25.94-.5,1.55-.33,2.6.12,1.81.78,3.12,2.98,5.66,2.2.53-.16,1.9.93,2.16,1.69.89,2.55,1.57,5.19,2.1,7.85.56,2.85.4,5.93,1.41,8.58.94,2.49,1.89,4.97,2.18,7.55.51,4.58,2.14,8.92,2.01,13.69-.11,4.02,1.32,8.07,2.03,12.11.67,3.85,1.03,7.71.33,11.61-.23,1.27-.35,2.59,1.94,1.88.23,4.01.45,7.88.68,11.97.32.06.94.17,1.8.33.21,1.14.37,2.37.69,3.57.33,1.23.89,2.39,1.19,3.62.17.72.21,1.57,0,2.27-.6,1.97-.61,3.53,2.22,3.9-.54.4-.86.64-1.18.88,1.61,2.27,1.99,4.8,1.36,7.63.56-.29,1.04-.53,1.02-.52.38,1.08.92,2.05,1.05,3.08.35,2.75,3.16,5.11,1.63,7.58,1.24,2.6,2.29,4.79,3.43,7.18.32-.74.62-1.36.86-2,.54-1.45,1.16-2.88,1.52-4.37.19-.75-.2-1.63-.16-2.44.06-1.05.3-2.09.44-3.13.92-7.06,3.04-13.91,3.04-21.15,0-2.83,1.44-5.65,2.17-8.5.18-.72.17-1.49.21-2.23.19-3.69.33-7.37.56-11.06.17-2.57.45-5.13.71-7.69.45-4.53.92-9.06,1.39-13.59.2-1.9.07-3.92.68-5.68.92-2.65,0-5.08-.55-7.44-1.43-6.03-.02-11.79,1.03-17.63,3.28-18.29,6.54-36.58,9.78-54.88.2-1.11.31-1.84,1.77-2.09,1.09-.18,2.02-1.34,3.22-2.21.66,1.79,1.29,3.49,1.96,5.3.35-.14.7-.29,1.39-.57v5.04c.19.05.37.11.56.16.35-.55.71-1.11,1.14-1.79.72,1.11,2.37,1.48,2.14,3.24-.02.18.63.66.87.6.39-.1.9-.47,1.01-.84.26-.86.32-1.79.5-2.92-.38.28-.57.41-.75.55-.34-1.95-.05-2.73,2.76-5.9-.26,2.33-.52,4.66-.76,6.99-.05.48-.09,1.01.05,1.46.55,1.76,1.18,3.5,1.73,5.09.04-.07.25-.48.47-.89.11.02.21.04.32.06-.08,1.48-.15,2.97-.26,4.45-.02.25-.14.67-.28.7-2.51.6-2,2.78-2.37,4.48-.24,1.1-.27,2.25-.58,3.32-.19.67-.72,1.23-1.1,1.85-.34.01-.69.03-1.03.04.54,1.31.96,2.68,1.66,3.9.73,1.26,1.56,2.3-.04,3.52-.32.24-.42.97-.38,1.46.17,2.07,0,3.98-2.17,5.17.12.2.25.4.37.6.71-.24,1.42-.49,2.62-.89-.73,2.78-1.45,5.49-2.2,8.36.35-.31.58-.5.89-.77,0,1.66.03,3.24,0,4.82-.14,7.09-1.67,13.96-3.03,20.89-1.32,6.7-2.01,13.62-.15,20.73-.5-.1-.7-.12-.89-.18-.18-.06-.35-.16-.98-.47-.09,3.99-.22,7.73-.25,11.48-.01,1.37-.03,2.65-1.29,3.53-.2.14-.42.4-.46.63-.34,2.18-.64,4.36-.95,6.6.53-.08.86-.13.77-.11-.28,1.77-.75,3.53-.81,5.29-.24,7.02-.98,13.94-2.78,20.76-.62,2.35-.67,4.84-1.13,7.24-.21,1.13-.6,2.29-1.18,3.28-.73,1.23-.9,2.06.83,2.34ZM540.68,147.8c-.12,0-.24.02-.36.02-.47,3.93-.93,7.86-1.4,11.79,1.53-2.46.42-5.48,2.17-7.98.56-.8-.23-2.53-.41-3.83ZM562.61,31.54c.24-.74.42-1.23.56-1.74.13-.49.22-.98.3-1.34-.7-.15-1.29-.28-2.38-.52-.41,1.58-.86,3.27-1.3,4.96.19.06.37.11.56.17.46-.75.92-1.5,1.4-2.26.33.28.56.48.86.73ZM446.33,191.84c1.92-2.22.05-4.38-.2-6.57-1.33,2.21.14,4.38.2,6.57ZM443.62,170.31c-.96.94-.97,1.33.69,3.13v-5.58c-.23,0-.46,0-.69,0v2.46ZM497.91,122.63c.23.06.46.12.7.19.41-1.34.83-2.68,1.35-4.37-3.04.83-1.77,2.78-2.05,4.18ZM506.38,155.7c.14-1.35.28-2.7.41-4.05-.23-.02-.46-.05-.68-.07-.1,1.36-2.61,2.44.27,4.12ZM546.1,117.12c-1.66-.52-1.91.64-2.34,1.55-.06.13.06.33.1.53.26-.33.48-.61.91-1.14.09.88.15,1.42.26,2.53.47-1.5.76-2.46,1.07-3.47ZM549.86,108.96c.24.05.49.09.73.14.29-1.55.59-3.1.88-4.65-.18-.04-.36-.07-.53-.11l-1.08,4.61Z"/>
      <path class="cls-1" d="M1071.3,184.2c.37.32.71.62,1.13,1-.76,1.27-1.36,2.61-3.23,2.38-.22-.03-.63.28-.72.52-.73,1.96-1.34,3.96-2.14,5.89-.38.91-1.03,1.73-1.67,2.49-.46.55-1.1.94-1.54,1.29-1.01-.19-1.9-.36-2.99-.57,0-.03.06-.42.18-1.14-1.03,1.07-1.8,1.87-2.57,2.66.74,1.79.91,3.1-.44,5.08-1.45,2.13-3.69,3.71-4.67,5.91-2.02,4.53-6.83,5.88-9.7,9.36-.3.37-1.21.24-1.83.34-.1-.18-.2-.36-.31-.54.78-.58,1.55-1.16,2.59-1.94.51-1.25,1.17-2.87,1.84-4.48-.24-.09-.47-.18-.71-.27-.33.69-.61,1.42-1.02,2.07-.38.58-.83,1.18-1.38,1.58-2.34,1.68-4.79,3.22-7.07,4.98-.62.48-.72,1.57-1.16,2.33-.29.51-.74.93-1.44,1.77-.52-2.42-.68-4,1.48-4.67.06-.02.14-.04.18-.09,2.71-3.2,5.42-6.39,8.21-9.69-.35-.1-.56-.23-.67-.18-1.84.93-4.03,1.32-5,3.55-.47,1.08-1.23,1.59-2.51.83-.64-.37-1.54-.28-2.93-.5,2.24-2.07,4.13-4.31,6.47-5.84,2.33-1.52,2.86-2.3,1.05-4.8-1.99,1.47-4.01,2.9-5.95,4.43-.32.26-.4.94-.43,1.44-.17,2.8-.46,3.1-3.38,3.43-.19.02-.36.1-.72.2.3.53.57,1.01,1.1,1.95-1.64.66-3.17,1.1-4.52,1.87-.98.56-1.66,1.63-2.57,2.34-.72.56-1.55,1.02-2.4,1.36-2.16.85-4.25,1.75-5.29,4.03-.46,1.01-.86,2.05-1.2,2.89-3.55.7-4.75-1.8-6.03-4.12-.2-.37-.03-.95-.03-1.64-.16-.06-.62-.24-1.35-.52,1.9-.66,1.86-1.85,1.75-3.38-.52-7.25-1-14.51-1.24-21.78-.44-12.9-.68-25.8-1.03-38.7-.24-8.99-.53-17.99-.79-26.98-.4-14.09-.78-28.18-1.21-42.27-.22-7.14-.35-14.29-.81-21.41-.88-13.64-1.98-27.27-2.96-40.91-.49-6.79-.88-13.59-1.35-20.39-.18-2.68,1.92-4.81,4.58-4.59,2.23.19,4.47.53,6.69.46,2.46-.08,4.66-.03,5.3,2.35,1.23.37,2.06.6,2.87.87.49.16.94.52,1.43.58,2.09.25,4.19.65,6.28.58,8.19-.25,15.71,2.51,23.41,4.71,9.35,2.67,17.51,7.79,26.12,11.97.18.09.47.18.49.3.41,2.83,3.44,2.63,4.93,4.25,1.51,1.64,3.39,2.95,5,4.5,1.22,1.18,3.13,2.03,2.44,4.39.77.1,1.41.18,2.04.26-.11.13-.22.25-.32.38.63.64,1.42,1.19,1.87,1.94.93,1.55,1.69,3.2,2.65,5.05-.05,0,.38-.04.44-.05.46.91.79,1.68,1.25,2.38.28.43.88.67,1.11,1.12,1.17,2.26,2.39,4.51,3.35,6.85.55,1.33.57,2.87.96,4.28.22.81.52,1.76,1.11,2.28,1.19,1.06,1.12,2.21.92,3.58-.21,1.45-.17,2.93-.24,4.4.19.06.38.13.57.19.23-.34.45-.68.75-1.14.16.36.27.51.3.68,1.38,7.88.97,15.84,1,23.78,0,.46.07,1.14-.19,1.33-2.76,2.13-1.76,5.35-2.36,8.07-.64,2.88-1.54,5.85-1.31,8.7.13,1.61-1.9,3.36.14,4.85.13.09.09.52.02.75-.69,2.3-1.41,4.6-2.21,7.19-.24-.66-.34-.94-.51-1.43-.17.62-.52,1.22-.36,1.47,1.42,2.18-.43,3.52-1.14,5.22-.49,1.19-.42,2.6-.67,4.43-1.68,1.14-2.17,3.48-2.62,5.93-.26,1.42-.88,2.81-1.51,4.13-2.26,4.73-4.63,9.41-6.88,14.15-1.27,2.69-2.43,5.43-3.54,8.19-.26.65-.16,1.45-.19,1.85-.47,1.04-.84,1.83-1.18,2.63-.08.18-.03.43-.14.57-1.56,2.06-3.18,4.08-4.69,6.18-.39.55-.46,1.35-.65,2.04-.17.63-.14,1.41-.51,1.87-1.15,1.45-2.45,2.77-3.84,4.31ZM1065.21,175.15c-.29.72-.67,1.42-.84,2.17-.11.51.07,1.09.12,1.63.18-.02.36-.04.53-.07.54-1.32,1.08-2.64,1.7-4.15-.75.23-1.17.36-1.59.48.04-.47.24-1,.09-1.39-.67-1.76-1.44-3.48-2.19-5.28-.36-.08-.82-.18-1.34-.3.41-.98.75-1.78,1.08-2.59-.17-.12-.34-.24-.51-.36-1.72,1.93-3.45,3.86-5.13,5.74.52.7.84,1.14.9,1.22-.82,1.34-1.48,2.41-2.14,3.48.15.09.31.19.46.28,1.51-1.58,3.03-3.16,4.76-4.97v2.91c-.57.21-1.05.4-1.65.62,1.49,1.22,3.74-1.43,4.59,1.31.4-.26.78-.5,1.16-.75ZM1023.37,165.52c-.71-2.05-1.43-4.15-2.15-6.24-.17,0-.34-.01-.51-.02-.18,1.46-.58,2.94-.5,4.39.24,4.33.68,8.64,1.05,13.15h4.07c-.14.79-.19,1.39-.35,1.95-.69,2.44-.66,4.8.57,7.1,1.96,3.69,1.61,7.7,1.58,11.67,0,.32.03.8-.16.95-1.9,1.56-1.45,3.9-2.04,5.89-.25.84-.62,1.63-1.09,2.86-.67-1.15-1-1.72-1.55-2.67-.21,1.92-1.6,3.26-.45,4.81,1.5-.49,2.87-.94,4.27-1.4.16.29.34.62.58,1.06,1.14-1.67,2.16-3.16,3.19-4.66-.12-.15-.24-.31-.36-.46-.99.47-1.99.95-3.47,1.66,3.22-3.99,6.09-7.57,9.24-11.48-.07.96-.12,1.49-.16,2.02,1-2.53,1.93-5.09,3.41-7.27,3.83-5.62,8.06-10.96,11.82-16.61,2.95-4.44,5.51-9.15,8.12-13.81,1.03-1.84,1.57-3.95,2.61-5.77,4.63-8.14,8.16-16.75,10.96-25.66,1.17-3.72,1.75-7.66,3.28-11.21,1.48-3.43,2.25-7.23,4.69-10.23.14-.17.17-.56.07-.77-.16-.34-.71-.64-.68-.9.12-.86.2-1.87.7-2.49,1.43-1.78,1.77-3.28.56-4.64,2.21-.88,2.13-2.74,2.05-4.65-.05-1.19.1-2.4-.06-3.57-.08-.58-.53-1.42-1-1.58-1.35-.46-1.58-1.3-1.56-2.57.05-6.23.09-12.47-.02-18.7-.03-1.75-.57-3.49-.93-5.58-.48.71-.69,1.01-1.01,1.49-.88-2.25-1.69-4.26-2.45-6.29-.13-.34-.19-.8-.07-1.12,1.11-2.94-.16-5.46-3.35-6.15,1.95-2.12.71-3.79-.6-5.57-1.41-1.92-2.54-4.04-3.98-5.94-.86-1.14-2.03-2.05-3.12-3-.29-.26-.86-.22-1.15-.48-2.42-2.16-4.76-4.43-7.23-6.52-1.4-1.18-3.03-2.08-4.52-3.16-.9-.65-1.63-1.78-2.61-2.03-4.65-1.18-9.34-2.21-14.06-3.13-3.8-.74-7.65-1.26-11.7-1.9.47,4.99.93,9.7,1.34,14.43.84,9.56,1.7,19.11,2.48,28.67.52,6.45,1.06,12.91,1.31,19.38.11,2.8,1.84,5.82-.65,8.45-.12.12-.03.53.08.75,1.26,2.53.96,4.82.09,7.58-.86,2.7-.19,5.9-.11,8.88.02.93.31,1.85.58,3.36,1.33.46,1.16,2.22,1.12,3.98-.05,2.52-.19,5.06.04,7.55.25,2.68-1.16,4.07-3.08,5.06v2.81c.46-.65.75-1.06,1.17-1.66.07,1.25.12,2.2.17,3.27.84-.33,1.49-.59,2.08-.82,1.73,12.11-.08,23.95-1.04,36.37-.91-1.22-1.43-1.93-2.08-2.79-1.24,1.44-2.31,2.67-3.43,3.96ZM1082.44,130.21c-.22,0-.44-.01-.66-.02-.69,1.26-1.11,2.86-3.06,2.49-.12-.02-.41.2-.43.33-.19,1.67-1.41,1.96-2.77,1.96.36,3.41,2.56,3.9,7.44,1.67-.17-2.1-.35-4.27-.53-6.43ZM1070.05,155.93c1.11-1.41,2.12-2.68,3.17-4.01-.25-.31-.53-.64-.88-1.06,1.13-1.07,2.21-2.09,2.83-2.68-.71-2.92-1.3-5.36-1.9-7.81.82,5.04-1.02,9.49-3.04,13.89-2.06-1.32-3.18-.96-4.23,1.38,2.51.13,1.06,1.78.98,3.3.64-1.35,1.08-2.3,1.56-3.3.61.11,1.17.22,1.51.28ZM1059.39,180.78c-.34-1.89-.58-3.22-.82-4.58-2.42,1.67-1.65,4.33-2.3,6.56,2.51.83,2.57-1.37,3.12-1.98ZM1067.62,160.46c-.52.56-.79,1.06-1.17,1.17-.32.1-1.06-.18-1.12-.42-.29-1.18-.23-1.2-1.45-1.1-.09.94-.18,1.9-.27,2.86.14-.15.29-.3.43-.46,1.27.85,2.54,1.71,3.88,2.61.36-.81.76-1.7,1.24-2.76-.51.15-.84.24-1.27.36-.09-.71-.16-1.34-.28-2.27ZM1087.41,109.33c-1.14,1.91-2.08,3.49-3.03,5.07.67.62,1.26,1.17,1.86,1.72,1.65-1.59,1.86-2.7,1.17-6.79Z"/>
      <path class="cls-1" d="M18.46,192.17c.09-1.27-1.82-2.79,1.19-3.84-2.69-1.58-4.82-2.83-7.58-4.44-1.83-3.35-2.08-7.79-1.56-12.31.14-1.19.18-1.88-1.15-2.66-1.53-.9-2.5-2.62-1.91-4.35-.62-.56-1.25-.85-1.41-1.31-1.74-4.79-3.28-9.59-2.82-14.86.32-3.66.06-7.37.06-11.05,0-.26.08-.6-.05-.78-2.24-3.16-.56-6.53-.47-9.79.04-1.35-.33-2.39-.73-3.62-.54-1.7-.27-3.66-.34-5.51-.01-.39,0-.79,0-.71-.6-.56-1.12-.82-1.19-1.16-.86-4.34-.57-8.63.61-12.89.18-.66.11-1.57-.21-2.17-.81-1.53-.97-3.05-.79-4.76,1.04-9.66,2.04-19.32,4.84-28.68.22-.74.14-1.57.21-2.51.67-.08,1.36-.17,1.81-.23.81-3.19,1.6-6.29,2.5-9.82-.08-.04-.59-.33-1.51-.84,1.23-.17,1.86-.25,2.45-.33.09-.18.2-.29.2-.41,0-2.16.47-3.99,1.62-6.04,1.77-3.14,2.31-6.94,3.66-10.35,1.88-4.78,3.94-9.5,6.12-14.16.44-.94,1.8-1.42,2.68-2.19.43-.38,1.04-.96,1.01-1.41-.11-1.65,1.08-2.3,2.1-3.08,4.02-3.08,7.47-7.03,12.48-8.61,2.1-.66,4.35-.89,6.55-1.18,1.37-.18,2.78-.1,4.16-.21.44-.03,1.2-.19,1.26-.43.59-2.47,2.44-1.33,3.82-1.35.92,0,1.87.46,2.75.32,4.5-.73,8.49,1.16,12.58,2.41,1.39.43,2.59,1.54,3.84,2.38,2.09,1.4,4.15,2.84,6.23,4.24,1.5,1,3.04,1.79,4.98,1.62.61-.05,1.52.51,1.88,1.06,1.58,2.41,2.84,5.03,4.52,7.35,1.96,2.72,3.58,5.47,4.15,8.85.25,1.5,1.15,2.94,1.92,4.31.82,1.46,1.11,2.88.72,4.54-.42,1.8-.58,3.65-.89,5.68,1.76-1.04,1.87-.01,1.98,1.33.37,4.55-2.05,7.59-5.02,10-1.43-.61-2.68-1.1-3.87-1.68-.69-.34-1.3-.83-1.95-1.25.36-.49.99-.97,1.02-1.48.11-1.74.03-3.5-.12-5.24,0-.07-1.47,0-2.49,0-.74-1.53-1.56-3.24-2.51-5.21-.5,1.23-.9,2.22-1.39,3.41-1.42-1.06-2.73-2.01-4.01-3.01-1.4-1.09-2.75-2.41-4.43.2-.08-.19-.17-.39-.25-.58.43-3.06.86-6.13,1.3-9.19.6-4.25,1.28-8.5,1.76-12.76.09-.8-.36-1.87-.91-2.51-2.51-2.93-5.63-4.03-9.61-3.79-3.76.22-6.89,1.53-10.2,3.52,2.38-.46,4.5-.87,6.62-1.28l.17.58c-.76.28-1.52.53-2.27.83-2.01.81-4.06,1.56-6.02,2.48-4.73,2.21-6.83,6.86-9.75,10.73-5.17,6.83-8.21,14.73-11.16,22.66-.92,2.47-1.93,4.92-2.86,7.39-1.39,3.7-2.86,7.38-4.03,11.15-.44,1.43-.03,3.09-.22,4.62-.3,2.53-.75,5.04-1.18,7.55-.06.37-.5.67-.56,1.04-.61,3.4-1.39,6.78-1.71,10.21-.46,4.8-.75,9.63-.77,14.45-.02,3.69.47,7.38.76,11.07.16,1.98.3,3.96.56,5.92.34,2.48.83,4.95,1.18,7.43.44,3.14,1.12,6.28,1.12,9.43,0,3.2.63,6.13,1.84,9.03.41,1,.79,2.29.49,3.23-.53,1.65,0,1.98,1.55,1.73-.43,1.56-.82,2.95-1.14,4.11.45.69,1.03,1.17,1.09,1.72.35,2.98,1.22,5.66,2.76,8.33,1.26,2.2,1.43,5.03,2.07,7.58.24.95.46,1.9.73,3,.59-.17,1.04-.31,1.71-.5-.57,1.29-1.03,2.36-1.56,3.56,1.29.84,2.55,1.65,3.46,2.24v3.55c.81-.39,1.34-.65,2.23-1.08.63,2.46,1.14,4.84,1.87,7.15.41,1.29.97,2.66,2.63,2.93,1.11.18,1.27.89,1.58,1.88.44,1.41,1.23,2.9,3.08,3.03.2.88.1,2.12.64,2.53,1.34,1.03,3.04,2.45,4.47,2.32,1.95-.17,3.95-1.41,5.64-2.6,1.99-1.4,3.68-3.22,5.46-4.89.41-.39.75-.9,1.01-1.41,1-2.01,1.75-4.19,2.97-6.05,3.61-5.5,3.08-11.6,2.84-17.67-.1-2.57-.41-5.14-.6-7.71-.03-.38-.06-.95.16-1.12,2.23-1.79,2.29-4.38,2.49-6.84.15-1.85.94-2.62,2.58-2.12.82.35,1.62.95,2.47,1.01,1.81.14,3,.88,3.61,3.34.41-2.33,1.39-2.97,3.18-2.22.12,1.44.24,2.96.37,4.48.27,0,.54,0,.81,0,.25-.98.42-1.99.78-2.92.25-.65.77-1.73,1.13-1.71,1.08.04,2.59.19,3.12.91,1.18,1.61,2.25,3.51,2.68,5.44.8,3.6,1.13,7.3,1.61,10.96.12.92.41,1.64.86,2.5,1.07,2.05-1.44,3.86-4.11,3.24.42,1.46.8,2.81,1.25,4.39.39-.43.64-.71.99-1.09.06.32.14.5.11.66-.29,1.89.05,4.6-1.06,5.49-1.74,1.39-1.49,3.11-2.01,4.63-1.21,3.56-2.08,7.24-3.05,10.88-.19.69-.14,1.46-.37,2.13-.26.73-.67,1.41-1.11,2.05-.44.64-1.2,1.11-1.47,1.8-1.38,3.53-4.77,4.3-7.74,5.19-1.13.34-2.28.51-2.98,1.38-1.27,1.58-2.83,1.96-4.74,1.85-1.98-.12-4-.18-5.97,0-7.18.67-13.93-.85-20.49-3.62-1.83-.77-3.76-1.27-5.62-1.98-1.2-.46-2.69-.46-2.88-2.45-.05-.53-1.99-1.19-3.09-1.25-1.93-.1-3.35-.29-4.04-2.57-.29-.95-2.06-1.38-3-2.23-.61-.56-.93-1.43-1.38-2.17-.16-.26-.25-.64-.48-.77-5.5-3.1-6.76-9.11-9.62-14.01-.4-.68-.98-1.87.78-1.95ZM92.39,184.61c-.92-.81-1.73-1.52-2.7-2.36v4.23c.96-.66,1.71-1.18,2.7-1.86ZM87.31,34.14q-.55,4.57,1.19,4.3c-.1-.44-.18-.89-.31-1.32-.28-1-.59-1.99-.89-2.98Z"/>
      <path class="cls-1" d="M930.93,158.48c.52-.19,1.04-.37,1.97-.71-.29,2.42-.69,4.55-.76,6.68-.12,3.71.05,7.43-.06,11.14-.07,2.5-.53,4.99-.61,7.49-.14,4.25-.07,8.5-.2,12.75-.02.82-.64,1.61-.83,2.45-.29,1.29-.46,2.61-.75,4.31,4.58-1.26,8.68-2.28,12.7-3.52,8.16-2.51,16.63-3.19,25.02-4.26,4.21-.53,8.54-.21,12.81-.03,1.22.05,2.41.93,3,1.64-.01,1.04-.46,2.49.06,3.02,1.01,1.04,2.36,1.06,3.75-.11,1.58-1.33,2.64.49,3.91,1.35-4.87,1-9.74,2-14.47,2.97-.11-.18.04.07.23.36-2,1.22-5.02.49-6.14,3.47-1.79-1.59-3.55-1.12-5.37-.27-.7.33-1.52.65-2.25.58-1.91-.17-3.5.29-4.86,1.65-.3.3-.79.43-1.21.56-2.05.64-4.12,1.2-6.16,1.88-1.69.56-3.38,1.17-5,1.9-1.65.75-3.19,1.74-4.84,2.49-1.12.51-2.38.69-3.52,1.16-.94.39-1.96.84-2.65,1.54-2.3,2.38-4.46,4.88-6.85,7.54-2.24-3.5-6.03-2.86-9.35-3.58-1.48-.33-2.93-.8-4.41-1.16-1.98-.48-3.97-.91-6.07-1.38,0-3.17-.07-6.59.02-10,.12-4.42.4-8.84.56-13.27.48-12.89.94-25.79,1.39-38.68.16-4.43.24-8.86.42-13.29.15-3.88.63-7.76.55-11.64-.29-14.22.14-28.54-1.36-42.65-2.22-20.93-.49-41.82-1.11-62.72-.12-3.9-1.04-7.03-4-9.66-2.83-2.52-2.58-3.88.62-6.04,1.1-.74,2.21-1.47,3.27-2.26,1.44-1.07,2.77-2.21,4.69-.69.48.38,1.53.08,2.32.03,8-.42,15.99-.94,23.99-1.24,4.89-.18,9.8-.07,14.7-.01,1.17.01,2.34.31,3.5.48.32.05.81.24.93.11,1.44-1.67,2.76-.24,4.11.11.83.21,1.66.65,2.48.63,4.26-.11,7.73,1.97,11.3,3.79-1.32,3.98,3.55,3.12,4.4,5.71h-5c1.34,1.92,2.46,3.51,3.67,5.25-.38.32-.79.68-1.21,1.04.53.04,1.06.09,1.71.14-1.64,1.68-2.66,1.78-4.14.66-.3-.23-.88-.19-1.31-.14-1.44.18-2.88.46-4.32.65-1.6.21-3.24.75-4.72-.54-.27-.23-.97.02-1.47.1-1.94.29-3.88.81-5.82.85-5.97.11-11.95-.02-17.92.07-2.1.03-4.19.48-6.29.66-1.5.13-1.9.82-1.9,2.31.06,15.78.06,31.56.01,47.34-.01,3.16-.32,6.31-.52,9.47-.07,1.14,1.05,2.2,2.41,2.09,7.79-.62,15.57-1.4,23.36-1.83,5.62-.31,11.27-.17,16.91-.13.69,0,1.39.63,2.04,1.03.74.45,1.43.97,1.92,1.32.13.72.24,1.37.4,2.25-1.43.63-3.01,1.33-4.75,2.1.34.17.84.39,1.32.66.52.29,1.34.53,1.45.95.11.42-.5,1.02-.85,1.65.16.19.44.52.81.96-.62.12-1.12.22-1.52.29.13,1.89-1.09,2.6-2.51,2.9-4.45.94-8.93,1.76-13.4,2.63-3.49.68-6.97,1.85-10.48,1.95-4.31.13-8.12,1.72-12.09,2.9-2.94.87-3.29,1.48-3.29,4.47,0,6.32.08,12.64-.02,18.97-.12,7.54-.36,15.08-.62,22.62-.02.58-.59,1.16-.96,1.71-.37.55-.79,1.06-1.19,1.59.14.13.27.27.41.4Z"/>
      <path class="cls-1" d="M664.63,197.27c.65.04,1.3.07,2.28.12-.34.84-.73,1.52-.85,2.23-.1.62.12,1.29.26,2.38-1.49,1.21-3.26,2.65-5.23,4.26-.21-.68-.3-.99-.43-1.42-.2.24-.34.47-.53.63-3.4,2.92-6.77,5.87-10.22,8.72-1.04.86-4.12.09-5.02-.94-1.6,0-3.13.25-4.55-.05-2.63-.56-5.18-.66-7.84-.16-1.09.21-2.46-.12-3.49-.64-2.89-1.47-5.61-3.25-8.49-4.74-1.38-.72-2.29-1.49-1.86-3.36-.63.1-1.09.18-1.55.25.09-.13.18-.26.27-.39-1.16-.85-2.39-1.61-3.44-2.57-.59-.54-1.25-1.4-1.23-2.1.02-1.39-.56-2.13-1.59-2.91-1.03-.78-2.61-1.17-2.58-3,0-.25-1.3-.38-1.51-.8-1.02-2.12-3.53-3.74-2.12-6.76.43-.92-.05-2.27-.14-3.92.88.69,1.28,1,1.68,1.31,1.91-3.77.26-11.78-.73-18.57-.31,1.16-.54,2-.77,2.85-.11-.02-.22-.03-.33-.05.16-2.06.33-4.12.5-6.32,1.92.72,3.23,1.62,2.97,3.96-.2,1.76-.04,3.57-.04,5.44,1.63.11,3.54-1.32,4.78,1.04v-8.4c.17-.02.35-.03.52-.05.28,1.46.56,2.93.82,4.27.54-3.18,1.1-6.43,1.65-9.68,1.22,5.65-.56,11.55,2.13,17.41.32-1.99.56-3.56.81-5.13.1,8.3,2.94,15.74,6.94,23.32-.79-.3-1.14-.43-1.62-.61-.44,2.6,2.06,2.77,3.22,4.31.07-.67.12-1.07.18-1.66,2.21,2.48,4.27,4.78,6.34,7.08,1.77,1.97,3.56,1.8,5.08-.37,3.89-5.55,5.56-12.11,8.35-18.16,2.9-6.3,2.88-13.25,4.44-19.85.28-1.18.91-2.28,1.26-3.46.13-.45,0-1.4-.16-1.43-1.59-.37-1.14-1.59-1.09-2.54.16-3.09-.27-6.02-1.49-8.91-.54-1.29-.48-2.83-.73-4.25-.26-1.49-.59-2.97-.79-4.47-.05-.4.28-.84.46-1.34-2.01-.3-1.93-1.96-2-3.3-.08-1.69-.44-2.99-1.55-4.45-1.77-2.3-2.89-5.09-4.35-7.63-.15-.25-.7-.27-1.07-.4.65-2.26-1.02-3.68-2.1-5.18-2.34-3.25-4.9-6.34-7.46-9.43-.63-.76-1.56-1.28-2.6-2.11-.38-.53-.82-1.58-1.6-2.18-4.48-3.42-9.04-6.73-13.56-10.1-.96-.71-1.87-1.48-2.79-2.24-1.03-.86-2.47-1.42-2.31-3.17.02-.19-.29-.41-.45-.63-2.13-2.92-4.27-5.82-6.39-8.75-2.09-2.89-4.16-5.79-6.2-8.62-.8.23-1.35.39-1.76.5-.07-.98-.02-1.91-.27-2.75-.06-.22-1.06-.16-1.42-.21-.26-1.45-.47-3-.83-4.52-1.09-4.58-2.16-9.18-1.33-13.92.76-4.33.95-8.85,3.59-12.67.18-.26.4-.64.35-.91-.73-3.33,1.54-5.47,3.19-7.78,2.87-4.01,5.29-8.38,9.42-11.42,2.23-1.64,4.12-3.75,6.18-5.62.39-.35.86-.76,1.33-.83,2.52-.35,4.17-2.04,5.94-3.6.42-.37,1.23-.32,1.86-.43,1.8-.32,3.7-.38,5.4-.98,3.56-1.26,6.54.43,9.43,1.81,3.69,1.76,7.08,4.14,10.66,6.15,2,1.12,4.14,1.99,6.18,3.06,1.75.92,2.74,3.12,5.15,3,.25-.01.54.67.8,1.03,1.29,1.73,2.59,3.46,3.89,5.18.16.21.5.37.52.58.32,2.45.84,4.9.84,7.35,0,3.04-.45,6.09-.32,9.2,2.7-1.87,1.3-4.9,2.48-7.66.87,4.3,2.88,8,2.39,12.82-3.1-.59-5.96-1.05-8.76-1.71-1-.24-1.14-1.11-.94-2.23.49-2.75,1.69-5.49.56-8.36-.07-.17-.15-.33-.18-.38-.6,3.3-1.21,6.67-1.83,10.04-.18,0-.36,0-.54,0-.23-.51-.47-1.01-.68-1.53-.87-2.15-1.17-2.25-3.31-1.09-1.76.95-7.56.58-8.9-.75-.64-.63-1.19-1.62-1.27-2.49-.38-4.14-.56-8.3-.88-12.45-.05-.69-.36-1.39-.68-2.02-1.44-2.75-2.92-5.48-4.45-8.32-3.04,1.12-5.71,2.37-7.23,5.56-.94,1.96-2.74,3.5-4.02,5.32-.91,1.29-1.54,2.77-2.41,4.09-.39.59-1.16.92-1.6,1.49-1.13,1.49-2.93,2.97-3.09,4.58-.29,2.91-1.51,5.33-2.69,7.81-2.26,4.78-1.53,9.58-.77,14.53,1.44,9.38,7.48,15.98,13.16,22.85.73.89,1.16,2.03,1.9,2.92.44.53,1.31.7,1.82,1.2,2.3,2.29,4.54,4.64,6.8,6.98.23.24.38.71.62.74,2.48.32,3.06,2.63,4.41,4.2.59-.22,1.13-.43,1.92-.74.55,1.21,1.1,2.44,1.8,3.96,2.09-.45,2.98,1.51,4.18,3.05,2.04,2.6,4.12,5.17,6.12,7.8.53.7.85,1.55,1.21,2.22.57.21,1.33.28,1.69.7.34.39.26,1.14.37,1.73-.27.19-.53.37-.8.56,1.12.56,2.48.89,3.33,1.73,2.07,2.07,3.81,4.46,4.09,7.5.1,1.08.5,1.62,1.31,2.35,1.05.95,1.69,2.42,2.3,3.76.83,1.82,1.47,3.72,2.28,5.82-.35.29-.99.83-1.74,1.46.92.78,1.66,1.42,2.52,2.15-1.54,1.78-.71,3.19.68,4.63,1.06,1.1.62,1.84-1.02,1.97.73,1.62,1.54,3.13,2.11,4.74.56,1.57.71,3.07-.56,4.63-.69.84-.71,2.32-.83,3.53-.13,1.38.03,2.79-.05,4.17-.09,1.64.12,3.27-1.46,4.64-.81.7-.9,2.37-1.07,3.63-.16,1.21.53,1.44,1.64.72v2.8c-2.12.07-2.02,1.79-1.81,3.21.23.65.84,1.53.62,1.92-1.75,2.98-.87,6.21-1.09,9.33-.02.32-.06.64-.12,1.19-2.59-.84-3.49,1.25-4.85,2.6-.51.51-1.05.98-1.58,1.48-.86,1.05-1.71,2.11-2.86,3.52,2.76-.27,2.73-1.95,2.86-3.52ZM626.8,206.77c-.15-.8-.17-1.4-.39-1.93-.76-1.87-1.62-3.71-2.38-5.58-.44-1.08-.27-2.62-2.17-2.47-.22.02-.5-.74-.76-1.14q-2.82,1.14-5.28-3.31c.5-.69,1.02-1.42,1.68-2.33-.69.16-1.15.27-1.73.4q1.49-3.18-1.07-3.45c.05-.31.11-.61.16-.92l-.31-.13c-.46.57-.91,1.15-1.4,1.75-.53-.49-.98-.91-1.43-1.33-.17.07-.34.15-.52.22.65,2.32,1.29,4.63,1.74,6.24,3.65,1.09,4,4.54,6.2,6.09.71-.35,1.44-.7,2.16-1.05.15.15.3.31.45.46-.5.67-1,1.35-1.29,1.74.54,1.46,1.03,2.76,1.51,4.06,2.29-.77,2.67,2.02,4.83,2.67ZM609.44,177.97c.3-.05.59-.1.89-.16-.23-1.04-.47-2.07-.7-3.11-.21.04-.42.07-.64.11.15,1.05.3,2.1.45,3.15Z"/>
      <path class="cls-1" d="M751.16,12.16c5.65-.95,11.42-2.1,17.24-2.85,7.54-.97,15.11-1.64,22.68-2.41,2.17-.22,4.35-.52,6.52-.5,3.82.05,7.65.23,11.46.56,1.3.11,2.53.91,3.83,1.28.37.11,1.01-.02,1.27-.29,1.98-2.11,4.16-.83,6.59-.71-.36.74-.56,1.15-.92,1.89,2.31.43,4.42.83,6.68,1.25-1.24.46-2.48.91-3.72,1.37l-.18.5c1.48.55,2.96,1.09,4.59,1.69-.58,1.68.71,2.12,2.23,2.49,2.36.58,4.75,1.18,6.5,3.61-1.48.41-2.82.99-4.2,1.13-5.3.52-10.61.86-15.92,1.33-8.48.74-16.97,1.53-25.45,2.29-.26.02-.53.02-.79.07-5.78,1.11-11.55,2.23-17.69,3.41,0,6,.04,12.24-.03,18.47-.01,1.26-.46,2.52-.6,3.79-.2,1.86-.38,3.74-.41,5.61-.02,1.38.36,2.77.29,4.15-.06,1.33-.63,2.65-.68,3.98-.05,1.31.13,2.67.47,3.94.29,1.08.95,2.05,1.62,3.42,3.23-.36,6.93-.94,10.64-1.14,4.83-.27,9.69-.53,14.5-.2,2.07.14,4.03,1.77,5.89,2.66-.34.97-.6,1.71-.85,2.42,3.07.88,5.81,1.67,9.09,2.61-1.28.49-2.04.78-2.93,1.12,1.91.76,4.58.42,4.12,3.77-3.76.52-7.59,1.28-11.46,1.56-10.18.72-19.67,3.92-29.01,7.67-.62.25-1.27,1.05-1.43,1.71-.59,2.49-.98,5.03-1.47,7.68.71.06,1.28.12,1.83.17.86,2.49,1.33,4.8-1.13,6.62-.21.15-.33.55-.33.84-.03,2.04-.01,4.09-.01,6.3,2.11-.22,2.46.84,2.45,2.58-.02,2.44.54,4.88.43,7.31-.05,1.17-1.05,2.31-1.77,3.77.2.29.91.93,1.11,1.7.27,1.04.17,2.18.19,3.28.02.97,0,1.93-.01,2.9,0,.31.05.62.02.92-.09.73-.22,1.45-.37,2.43.93-.22,1.53-.35,2.26-.52-.18.89-.35,1.72-.55,2.71-.52-.2-.95-.37-1.38-.54-1.68,3.41-1.65,3.81.57,7.74.58-.07,1.21-.14,1.91-.23.16,2.02.65,3.98-1.61,5.3-.42.25-.53,1.45-.4,2.14.27,1.39.07,2.21-1.57,2.04-.04.38-.15.67-.07.88,1.49,3.85.62,7.93,1.09,11.88.28,2.35-.54,4.83-.89,7.38.06,0,.6.05.81.06.7-1.55,1.32-2.92,1.94-4.29l.91.28c-.28,2.43-.57,4.86-.88,7.56-.62-.44-.95-.67-1.24-.88-1.68,1.59-1.08,3.56-1.15,5.44-.06,1.46-.39,2.92-.58,4.18.73,1.05,1.6,2.18,2.31,3.4.45.78.75,1.63-.41,2.33-.43.26-.83,1.52-.61,1.76,1.92,2.12.26,4.64.81,7.02.8-.28,1.46-.51,2.4-.84-.26.94-.4,1.71-.67,2.42-.86,2.21-1.14,4.45-.71,6.8.1.54,0,1.23-.26,1.71-.59,1.07-.83,1.83.41,2.73.49.35.46,1.58.46,2.4,0,1.77-.14,3.54-.23,5.52-2.56-.31-5.12.69-7.75-.76.13-.12-.14.13-.16.14-.7-.45-1.27-1.14-1.79-1.1-2.48.2-4.6-.22-5.78-2.81-1.23.72-2.29,1.34-3.54,2.07-.27-.91-.42-1.74-.78-2.47-.28-.58-.83-1.02-1.45-1.75,0-5.72.02-11.88-.02-18.04,0-1.05-.06-2.15-.36-3.13-1.11-3.58-.65-7.06-.2-10.71.49-3.89-.13-7.91-.12-11.87,0-2.92.41-5.85.31-8.77-.12-3.52-.62-7.02-.89-10.54-.14-1.77-.15-3.55-.2-5.33-.03-1.34.23-2.75-.1-4.02-.49-1.9-.2-3.36,1.47-4.41.44-.27,1.03-.3,1.55-.43-.28-.31-.56-.63-.83-.94-.56.22-1.12.44-2.18.86.17-2.47.5-4.71.43-6.92-.15-4.65-.53-9.28-.77-13.93-.1-1.96.02-3.93-.1-5.89-.31-4.79-.67-9.58-1.07-14.36-.18-2.17-.59-4.33-.73-6.5-.06-1.07.21-2.18.44-3.25.43-2.04.95-4.05-.3-6.02-.19-.29-.19-.74-.18-1.11.07-2.96.26-5.92.22-8.88-.02-1.14-.55-2.26-.8-3.4-.13-.63-.21-1.27-.22-1.91-.04-6.93-.1-13.87-.07-20.8.03-6.22.06-12.45.29-18.67.08-2.34.1-4.25-2.18-5.83-1.63-1.13-2.78-2.99-3.99-4.63-.84-1.14.36-4.5,1.74-5.12,1.27-.57,2.63-.94,3.87-1.55.97-.47,1.82-1.18,2.71-1.77ZM761.45,166.16l-.84-.13-.41,2.82c.31.04.63.08.94.13.1-.94.21-1.88.31-2.81Z"/>
      <path class="cls-1" d="M131.8,140.94c-2.18,1.33-2.86,1.27-3.41-.48-.82,1.75-1.55,3.32-2.46,5.28-1.27-2.16-2.35-4-3.59-6.11-.12,0-.67.05-1.34.11v-2.27c0-11.47-.25-22.95.07-34.41.31-11.29,1.17-22.57,1.87-33.85.11-1.82.63-3.62.94-5.43.06-.36.1-.74.06-1.11-.24-2.28-.7-4.56-.72-6.84-.04-7.09.01-14.18.19-21.26.13-5.22.61-10.43.74-15.65.13-5.3.03-10.6.03-15.83,1.28-.41,2.47-.72,3.6-1.18,2.25-.92,4.09.48,6.03,1.07,1.18.36,2.05.82,3.52.53,1.55-.31,3.41.71,5.08,1.3,1.59.56,3.12,1.3,5.08,2.13v1.69c0,15.38.04,30.77-.05,46.15-.01,2.01-.64,4.03-1.17,6-.37,1.39-.39,2.62.14,3.99.44,1.14.61,2.43.65,3.66.09,2.85,0,5.7.04,8.55.03,1.82.05,3.52-1.55,4.88-.45.38-.44,1.47-.41,2.22.29,7.13.66,14.27.91,21.4.04,1.07-.37,2.15-.57,3.23-.05.25-.23.6-.13.72,1.98,2.52.38,5.2.38,7.81,0,2.24-.03,4.48-.05,6.72-.07,11.11-.14,22.22-.21,33.33,0,.59.03,1.19.05,1.78.18,4.88.51,9.76.49,14.63,0,2.4-.65,4.79-1.01,7.18.28-.04.57-.08.85-.12.4.88.99,1.74,1.11,2.66.05.39-.9.9-1.62,1.58v1.8c.5-.1.93-.19,1.44-.29-.05.27-.09.45-.12.63-.12.7-.6,1.74-.31,2.03,1.64,1.65,1.07,3.56.64,5.3-.3,1.24-.15,2.27.02,3.46.23,1.62.06,3.3.06,5.02.62.2,1.16.38,1.8.59,0,1.27.04,2.53-.03,3.78-.02.37-.33.74-.54,1.09-.23.39-.51.75-.77,1.12.46.17.94.52,1.37.47,4.85-.6,9.71-1.14,14.54-1.93,8.1-1.32,16.17-2.84,24.27-4.19,1.03-.17,2.2,0,3.2.33,1.94.65,3.75,1.76,5.71,2.24,1.49.36,3.14.04,4.72.02.57,0,1.13,0,2.17,0-.59.73-.8,1.03-1.05,1.3-.83.91-.74,1.42.56,1.69.83.17,1.61.62,2.41.95-.01.24-.03.49-.04.73-4.04.76-8.09,1.45-12.1,2.31-1.51.32-2.93,1.02-4.39,1.58-1.77.68-3.48,1.61-5.31,2.04-10.38,2.39-20.77,4.77-31.21,6.92-3.34.69-6.84.84-10.26.86-1.25,0-2.49-1.13-3.78-1.64-.96-.37-2.01-.84-3-.78-2.31.14-4.23-.6-6.2-1.68-1.27-.69-1.72-1.45-1.59-2.78.07-.79.1-1.61-.04-2.38-.06-.33-.58-.57-1.21-1.14.05-.63.22-1.79.21-2.96,0-.45-.46-.88-.67-1.35-.12-.28-.31-.67-.21-.89,1.12-2.39-.2-4.45-.8-6.62-1.12-4.01-.96-8.04-.07-12.08.32-1.43.52-2.93.5-4.4-.11-7.74-.31-15.49-.47-23.23,0-.23.12-.47.2-.76,2.54,1,.12,2.86.92,4.17.31-.35.59-.76.95-1.06,2.18-1.77,3.65-3.53,1.82-6.6-.84-1.4.89-2.14,2.05-2.77.43-.23,1.01-.65,1.07-1.05.58-4.38,1.37-8.76.21-13.17-.06-.24-.14-.47-.22-.74Z"/>
      <path class="cls-1" d="M871.11,215.35c-.39.31-.71.56-1.04.81-.18-.08-.37-.16-.55-.24.46-1.6.91-3.2,1.24-4.34-.81.14-1.99.73-2.79.4-.96-.4-1.6-1.58-2.43-2.48-.45-.2-1.11-.48-2.08-.89v10.2c-.19,0-.37.02-.56.03-.3-2.59-.57-5.18-.92-7.76-.07-.54-.24-1.19-.61-1.54-2.29-2.2-2.04-4.66-1.2-7.41.46-1.52.39-3.09-.64-4.71-.65-1.02-.17-2.78-.15-4.2.06-3.89,1.11-8.09.01-11.62-2.63-8.49-1.79-17.08-2.16-25.64-.06-1.45-.08-2.95.22-4.35.75-3.61-.28-7.1-.41-10.65-.16-4.25-.26-8.51-.21-12.76.14-11.37.37-22.73.57-34.1.01-.86,0-1.72.02-2.59,0-.33-.06-.89.09-.95,2.42-1.14.88-3.16,1.09-4.77.68-5.22.5-10.58,1.26-15.71.82-5.48-.37-10.7-.14-16.03.04-.99-.24-2.01-.06-2.96.17-.86.76-1.64,1.36-2.83.28-1.13.68-2.75,1.09-4.38.21.02.42.03.63.05.18,1.11.36,2.21.54,3.32,1.47-.18,2.73-1.6,2.59-2.83-.37-3.29-.68-6.58-1.12-9.86-.64-4.75-.67-9.66-3.23-13.98.67-2.42-1.03-5.08-.31-6.99,1.37-3.6.35-7.07.76-10.56.2-1.69,3.21-3.75,4.59-2.75,2.3,1.66,4.58,1.72,7.06.72,1.29-.52,1.88.48,2.64,1.2,1.02.97,1.59,2.73,3.28,2.27.38,7.07.8,14.19,1.14,21.31.38,7.93.97,15.86.96,23.79,0,11.58-.39,23.17-.76,34.75-.27,8.52-.79,17.03-1.15,25.55-.09,2.24-.01,4.49-.01,6.92-.31-.6-.57-1.11-.83-1.62-.18.02-.36.04-.54.06v17.51c.09.02.19.04.28.06l.7-2.69c.12,0,.25,0,.37,0,.1,1.99.21,3.99.31,5.94q-1.78.64-.72,2.24c.11.16.18.37.2.56.39,4.94.76,9.89-.39,14.79-.22.93-.96,1.77-1.03,2.68-.08,1.09.41,2.22.46,3.34.09,2.27.13,4.56.03,6.83-.08,1.76-.53,3.51-.58,5.27-.03.93.03,1.74,1.55,2.25,1.34.45,1.51,2.57.35,4.54-.19-1.27-.33-2.2-.47-3.12-.16-.03-.31-.06-.47-.08-.08.68-.35,1.41-.22,2.05.45,2.26,1.13,4.49,1.54,6.76.19,1.04.29,2.45-1.78,1.89.61,1.36-1.33,3.19,1.1,4.05-.17.56-.32,1.06-.53,1.73.73-.09,1.33-.17,2-.25v4.65c-.78-.47-1.46-.89-2.24-1.36-.04.41-.17.7-.08.92,1.75,4.48,0,8.99.18,13.47.05,1.36.67,2.69,1.03,4.04.3,1.14.59,2.27.89,3.46-1.99-.08-1.29,1.54-1.93,2.41-1.8,1.1-2.59-.04-3.35-1.68-.12,1.19-.24,2.38-.38,3.75-.31-.26-.5-.42-.75-.64-.22.64-.44,1.25-.7,1.98-2.69-1.77-1.42-4.81-2.63-7.2ZM864.79,179.49c0,2.67.06,5.34-.04,8.01-.02.66-.38,1.46-.85,1.94-1.12,1.13-1.39,4.87-.05,5.75,1.65,1.09,1.82,2.51,1.77,4.23-.05,1.76.12,3.52.2,5.29.23,0,.46,0,.69-.01.21-1.96.43-3.92.65-5.94.51.23.81.37,1.32.59-.15-1.23-.27-2.25-.4-3.37-.64.32-1.09.55-1.77.89-.53-1.61-1.72-3.3-1.37-4.55,1.22-4.3.28-8.51-.14-12.84ZM878.98,102.8c-.13.01-.27.02-.4.03v5.94c.13,0,.27,0,.4,0v-5.98Z"/>
      <path class="cls-1" d="M719.88,116.72c-.22-.52-.44-1.05-.66-1.58-.18,0-.35.02-.53.02v17.46c.08.01.17.03.25.04.22-.86.43-1.73.65-2.59.14,0,.27,0,.41,0,.09,2,.18,3.99.27,5.96q-1.85.69-.67,2.12c.11.14.16.36.17.55.43,5.07.75,10.15-.41,15.17-.21.92-.95,1.75-1.03,2.66-.09,1.02.42,2.08.46,3.13.1,2.28.16,4.56.05,6.84-.08,1.7-.54,3.38-.62,5.07-.05,1.03-.01,1.89,1.58,2.44,1.29.44,1.56,2.57.35,4.41-.19-1.17-.35-2.1-.5-3.03-.18,0-.36-.02-.54-.02-.03.84-.21,1.71-.05,2.52.43,2.2,1.1,4.35,1.47,6.56.14.84.27,2.31-1.77,1.49.57,1.44-1.28,3.17,1.06,4.15-.14.55-.29,1.09-.49,1.85.75-.17,1.3-.29,1.95-.43v4.68c-.75-.48-1.38-.88-2.21-1.4-.03.44-.17.83-.06,1.11,1.8,4.48.03,8.97.14,13.45.03,1.33.69,2.63,1.05,3.95.31,1.13.6,2.26.91,3.45-2.02-.1-1.31,1.54-1.91,2.34q-2.02.66-3.09-1.38c-.61,1.5-1.28,3.14-1.99,4.88-2.9-1.78-1.51-4.85-2.72-7.18-.31.2-.64.42-1.54,1,.5-2.09.88-3.7,1.15-4.82-.72.17-1.78.77-2.47.48-1.03-.43-1.79-1.49-2.41-2.45-.66-.27-1.32-.54-2.25-.92-.15,3.19-.31,6.49-.46,9.78-.1,0-.19.02-.29.02-.28-2.46-.53-4.93-.85-7.38-.07-.54-.23-1.21-.6-1.55-2.33-2.18-2.25-4.69-1.18-7.37.52-1.29-.12-3.21-.75-4.63-.49-1.11-.22-2.57-.2-3.88.08-4.02.28-8.04.23-12.06,0-.87-1.04-1.69-1.23-2.61-.32-1.54-.4-3.14-.47-4.73-.23-5.68-.45-11.37-.6-17.05-.05-1.98-.16-4.02.24-5.94.83-4.01-.49-7.87-.49-11.82-.01-8.41-.17-16.81-.15-25.22.01-4.96.25-9.92.39-14.89.07-2.65.13-5.3.21-7.94.01-.38.04-1.05.21-1.1,1.97-.57,1.06-2.09,1.08-3.24.03-2.08-.65-4.22.78-6.13.2-.27.08-.77.12-1.17.42-3.95-.58-7.9.79-11.91.73-2.14-.14-4.83-.28-7.27-.18-3.1-.44-6.2-.45-9.3,0-.88.71-1.77,1.24-2.53.4-1.64.79-3.28,1.19-4.91.22,0,.44.02.66.02.18,1.16.36,2.31.54,3.47,2.05-.46,2.17-1.35,2.31-3.86.31-5.32-1.51-10.36-1.69-15.61-.06-1.65-.84-3.29-1.36-4.91-.28-.88-1.17-1.85-.97-2.54.72-2.43-1.2-4.92-.41-6.82,1.48-3.57.39-7.07.79-10.56.2-1.74,3.27-3.73,4.74-2.72,2.17,1.48,4.32,1.76,6.68.72,1.56-.69,2.23.53,3.12,1.39.92.89,1.45,2.55,3.16,1.95.22,5.04.4,10.09.67,15.15.42,7.98,1.05,15.95,1.3,23.94.18,5.82-.09,11.66-.2,17.48-.06,3.24-.25,6.48-.31,9.71-.22,10.2-.34,20.39-.63,30.59-.15,5.13-.57,10.26-.87,15.45ZM706.4,196.99c-.47-1.94-1.5-3.73-1.12-5.15,1.1-4.14.19-8.15-.06-12.21-.17,2.68-.13,5.35-.19,8.03-.01.57-.24,1.29-.63,1.67-1.64,1.6-1.49,4.86.22,6.47.62.58,1.06,1.57,1.18,2.43.19,1.43-.02,2.91.08,4.36.05.77.39,1.53.59,2.3.45-1.25.38-2.47.7-3.57.24-.81-.79-2.63,1.53-2.25-.11-.98-.23-1.94-.36-3.05-.62.31-1.06.53-1.93.98ZM718.86,108.59c.13,0,.27-.01.4-.02v-5.71c-.13,0-.27,0-.4,0v5.73Z"/>
      <path class="cls-1" d="M602.54,163.98c.76,3.38.19,5.65-2.48,7.65,0-1.57-.28-2.97.08-4.16.35-1.13,1.37-2.06,2.39-3.49Z"/>
      <path class="cls-1" d="M604.69,177.94c-.47,2.25-.91,4.37-1.37,6.54-1.41.02-1.32-1.06-1.25-2.01.06-.88.09-1.87.49-2.61.4-.72,1.26-1.17,2.13-1.92Z"/>
    </g>
  </g>
</svg>