<?xml version="1.0" encoding="UTF-8"?>
<svg id="Layer_2" xmlns="http://www.w3.org/2000/svg" viewBox="0 0 1072.22 212.38">
  <defs>
    <style>
      .cls-1 {
        fill: #f37b00;
      }
    </style>
  </defs>
  <g id="Page_21">
    <g>
      <path class="cls-1" d="M188.41,125.18L42.57,51.18c1.82-1.77,3.9-3.6,6.34-5.57.2-.15.4-.3.61-.45.61-.45,1.22-.89,1.85-1.31,1.24-.85,2.51-1.67,3.78-2.44,2.46-1.48,5.1-2.84,7.87-4.05,4.88-1.96,9.99-3.35,15.19-4.14,5.38-.63,10.91-.61,16.45.04,6.35.95,12.8,2.75,19.17,5.36,6.57,2.87,13.05,6.56,19.26,10.97.83.59,1.64,1.18,2.46,1.79l1.24.95c1.62,1.28,3.23,2.62,4.81,4,3.22,2.8,6.41,5.85,9.49,9.05,3.4,3.55,6.79,7.43,10.06,11.54,3.26,4.1,8.64,5.56,12.25,5.56,4.43,0,8.96-1.94,11.84-5.07,3.1-3.38,4.7-7.53,4.52-11.69-.22-4.98-2.45-8.32-4.1-10.4-9.4-11.8-20.12-22.25-31.88-31.04-11.37-8.52-23.6-14.96-36.34-19.15C104.53.86,91.07-.78,78.49.35c-14.42,1.3-28.39,5.84-40.39,13.12-11.87,7.2-22.57,17.31-31.81,30.02-1,1.37-1.98,2.79-3.01,4.34-2.28,3.44-3.05,7.68-2.17,11.94.87,4.21,3.3,7.91,6.68,10.21.67.49,1.34.9,2.02,1.25l147.86,75.03c-.72,1.04-1.45,2.06-2.19,3.06l-.31.4-.17.22h0c-.11.15-.25.33-.32.42-.65.82-1.32,1.63-2,2.43-2.59,3.04-5.34,5.86-8.19,8.41-.66.59-1.33,1.17-2.01,1.74-.36.3-.72.6-1.1.9l-.28.22c-1.57,1.18-2.99,2.18-4.33,3.05-3.16,2.05-6.56,3.89-10.12,5.45-4.86,1.95-9.94,3.33-15.11,4.11-5.38.63-10.91.62-16.44-.04-6.35-.95-12.8-2.75-19.17-5.36-6.58-2.87-13.05-6.56-19.26-10.97-.83-.59-1.65-1.19-2.46-1.79l-1.24-.95c-1.61-1.28-3.23-2.62-4.81-4-3.23-2.81-6.42-5.85-9.49-9.05-3.41-3.55-6.79-7.44-10.06-11.54-3.26-4.1-8.64-5.55-12.25-5.55-4.43,0-8.97,1.94-11.84,5.07-3.1,3.37-4.7,7.53-4.52,11.69.22,4.99,2.45,8.32,4.1,10.4,10.38,13.04,22.17,24.25,35.02,33.33,12.82,9.06,26.33,15.41,40.14,18.88,7.97,2,16.14,3.01,24.24,3.01,6.69,0,13.34-.69,19.79-2.06,14.22-3.04,27.7-9.67,40.08-19.72,10.99-8.92,20.52-20.57,28.33-34.64.81-1.47,1.61-2.96,2.44-4.6.29-.43.54-.86.78-1.3,2.12-4.02,2.55-8.81,1.17-13.14-1.28-4.04-4.02-7.29-7.7-9.16Z"/>
      <path class="cls-1" d="M1066.33,182.42c-3.19-2.79-7.2-4.12-11.29-3.75-14.24,1.28-28.62,1.32-42.73.1-3.2-.28-6.47-.63-9.91-1.08-14.05-1.95-27.4-5.12-39.66-9.41-3.03-1.06-6.19-2.27-9.4-3.61-2.17-.94-4.3-1.91-6.37-2.92l51.47-39.56c1.7-1.12,3.84-2.96,5.31-5.74.07-.13.14-.27.19-.38.53-1.01.96-2.07,1.26-3.17.16-.59.29-1.21.39-1.88.4-2.47.24-4.88-.49-7.15v-.02c-.42-1.42-1.01-2.73-1.75-3.88-1.36-2.11-3.11-3.89-5.09-5.19l-50.93-39.15c1.98-.95,4.02-1.88,6.11-2.78,11.65-4.84,24.35-8.59,37.73-11.15,3.58-.68,7.29-1.29,11.25-1.84,13.07-1.68,26.44-2.29,39.72-1.8,4.24.16,8.58.43,12.91.82,5.17.47,9.9-2.27,12.38-4.75,3.14-3.14,4.97-7.73,4.78-11.97-.38-8.58-6.77-15.13-15.54-15.92-18.79-1.69-37.64-1.37-56.02.97-18.1,2.3-34.12,6-48.99,11.31-12.28,4.39-23.05,9.42-32.72,15.28l-13.79-10.6c-1.41-1.08-2.81-2.19-4.21-3.29-2.85-2.24-5.79-4.56-8.9-6.79l-.05-.04c-4.26-3.27-9.96-3.28-13.55-2.29-4.2,1.16-8.02,4.17-9.97,7.86-2.18,4.12-2.65,8.61-1.35,12.65,1.45,4.48,4.21,7.03,6.45,8.76l18.97,14.58c-4.06,4.23-7.64,8.65-10.71,13.21-7.45,11.07-11.86,23.72-12.77,36.6-.88,12.46,1.97,25.47,8.24,37.62,3.75,7.26,8.75,14.18,14.93,20.64l-18.66,14.34c-2.54,1.95-5.31,4.57-6.57,9.14-1.2,4.35-.49,9.31,1.85,12.94,2.44,3.79,5.98,6.37,9.97,7.28,4.93,1.12,9.73.25,13.16-2.39l26.67-20.5c6.66,4.06,13.75,7.7,21.17,10.85,14.96,6.35,30.84,11.04,47.2,13.94,15.27,2.7,30.76,4.07,46.18,4.07,2.87,0,5.74-.05,8.61-.14,4.89-.16,9.88-.47,14.86-.92,4.44-.4,7.95-1.96,10.76-4.76,3.14-3.14,4.97-7.73,4.78-11.97-.21-4.58-2.4-9.13-5.88-12.17ZM918.39,142.6c-.18-.18-.36-.35-.54-.53-1.54-1.51-3-3.06-4.36-4.62-.68-.78-1.34-1.57-2.02-2.43-.28-.37-.55-.73-.82-1.11-2.41-3.35-4.45-6.88-6.05-10.51-1.27-3.23-2.17-6.53-2.7-9.82-.35-3.19-.35-6.42,0-9.6.53-3.31,1.44-6.62,2.71-9.86,1.41-3.19,3.15-6.3,5.17-9.25.52-.76,1.09-1.54,1.67-2.33l.02-.02c.3-.38.61-.76.92-1.13,1.33-1.6,2.77-3.19,4.29-4.74.64-.65,1.29-1.29,1.96-1.94l44.02,33.84-44.28,34.04Z"/>
      <path class="cls-1" d="M396.21,70.5c1.08-.89,2.31-1.9,3.51-3.1,3.06-3.05,4.8-7.29,4.78-11.56,0-.54-.02-1.08-.08-1.62-.02-.17-.03-.33-.06-.53-.04-.32-.1-.63-.16-.94-.05-.28-.1-.56-.17-.84-.54-2.16-1.51-4.17-2.9-5.97-.93-1.29-1.92-2.39-2.72-3.28l-.46-.51c-10.27-11.51-27.43-26.49-50.9-32.5-22.08-5.65-46.43-1.92-66.79,10.22-16.91,10.08-31.53,25.34-43.44,45.36-10.67,17.93-18.33,38.52-22.77,61.2-2.24,11.44-3.63,23.17-4.12,34.87-.24,5.7-.27,11.5-.08,17.25.09,2.8.23,5.59.42,8.3.1,1.5.22,3,.35,4.5.03.37.06.74.08,1.11.1,1.45.22,3.26.68,5.17,1.76,7.35,8.44,12.62,15.94,12.62.08,0,.16,0,.24,0,4.78-.07,9.3-2.29,12.36-6.02.53-.45,1.02-.9,1.47-1.3.4-.36.79-.72,1.18-1.05l145.54-124.51c2.43-2.08,4.86-4.16,7.31-6.21l.8-.67ZM254.86,102.63c.38-.98.78-1.95,1.18-2.92l.47-1.1c.27-.64.55-1.27.84-1.9.99-2.22,2.04-4.42,3.12-6.55,2.17-4.28,4.53-8.41,7.01-12.28,1.25-1.94,2.55-3.85,3.85-5.66.6-.83,1.21-1.65,1.83-2.47h0s.38-.48.38-.48c.39-.5.78-.99,1.18-1.48,2.84-3.48,5.83-6.71,8.9-9.61,1.62-1.53,3.29-3,4.98-4.37.36-.29.73-.58,1.09-.87l.51-.38c.93-.69,1.87-1.37,2.81-2,3.38-2.31,7.24-4.45,11.76-6.55l.65-.26c.46-.18.93-.36,1.4-.54,1.06-.39,2.13-.75,3.21-1.08,2.31-.71,4.61-1.28,6.82-1.69.5-.09,1-.18,1.48-.25l.36-.05h0s.05,0,.07-.01h0s.16-.02.16-.02c1.31-.15,2.39-.24,3.38-.3,2.25-.13,4.54-.13,6.79,0,.89.05,1.79.13,2.69.22l.83.1c.46.07.91.14,1.37.22,1.91.33,3.83.76,5.73,1.29,1.86.52,3.74,1.14,5.6,1.86.43.16.85.34,1.27.51l.54.23c.92.41,1.86.85,2.78,1.31,3.52,1.75,7.01,3.87,10.36,6.28.43.31.85.62,1.27.93l.46.34c.74.59,1.47,1.17,2.19,1.78l-121.37,103.84c.26-4.38.66-8.76,1.2-13.06l.18-1.38s0,0,0,0l.22-1.56c.2-1.33.4-2.66.63-3.99.45-2.66.95-5.33,1.5-7.93,2.08-9.85,4.88-19.31,8.32-28.14ZM318.55,38.67l-1.14-7.19-.05-.33,1.19,7.52ZM265.93,64.28l3.39,2.5,2.65,2.07-6.04-4.57h0Z"/>
      <path class="cls-1" d="M714.19,55.7l.81-.33c.52-.21,1.05-.43,1.57-.63,1.28-.51,2.57-1,3.86-1.48,9.4-3.49,19.52-6.33,30.08-8.43,2.6-.52,5.24-1,7.84-1.42,1.36-.22,2.72-.43,4.08-.63.54-.08,1.08-.15,1.6-.23l1.65-.21c5.39-.67,10.94-1.16,16.47-1.45,6.57-.35,13.24-.44,19.91-.27v42.61c-.02,3.31-.05,8.85,4.26,13.6,3.92,4.31,9.96,6.16,15.77,4.8,5.83-1.35,10.45-5.68,12.07-11.29.67-2.33.64-4.48.63-5.9V29.8c0-.37,0-.74,0-1.12.02-1.04.04-2.21-.04-3.47,0-5.88-3.15-11.3-8.31-14.25-3.17-1.81-6.27-2.06-8.33-2.22l-.39-.03c-1.56-.13-3.12-.24-4.69-.34-2.94-.19-5.93-.33-8.89-.43-11.84-.37-23.73.03-35.35,1.21-24.64,2.5-47.34,8.08-67.45,16.56-23.59,9.95-41.88,23.25-54.38,39.52-7.54,9.81-12.53,20.87-14.44,31.98-2.18,12.66-.66,25.68,4.4,37.66,7.99,18.92,23.75,35.12,46.84,48.14,18.75,10.57,40.54,18.1,64.74,22.36h0c11.88,2.09,23.95,3.41,35.87,3.91,3.74.16,7.52.24,11.3.24,2.16,0,4.32-.03,6.47-.08,2.94-.07,5.9-.19,8.8-.36.6-.03,1.21-.06,1.82-.09,2.58-.13,5.51-.27,8.45-.77,7.74-1.31,13.57-8.22,13.55-16.08-.02-7.55-5.33-14.19-12.68-15.91-1.33-.36-2.7-.5-4.08-.42-.38.01-.76.04-1.15.09-12.91,1.08-25.83,1.18-38.39.32-3.36-.23-6.76-.54-10.09-.91-1.5-.17-3-.35-4.46-.54l-1.37-.19c-.88-.13-1.76-.26-2.64-.39-6.21-.96-12.37-2.19-18.31-3.65-6.23-1.53-12.35-3.34-18.17-5.39-2.81-.98-5.57-2.03-8.2-3.11l-1.13-.47c-.64-.28-1.29-.56-1.93-.84-1.4-.62-2.79-1.26-4.15-1.92-5.48-2.64-10.67-5.57-15.42-8.7-1.11-.73-2.2-1.48-3.23-2.22-.53-.38-1.06-.76-1.57-1.14l-1.15-.87c-2.43-1.93-4.47-3.69-6.24-5.36-2.28-2.15-4.37-4.37-6.2-6.59-.23-.28-.46-.56-.68-.83l-.29-.38c-.38-.51-.76-1.02-1.12-1.54-.9-1.28-1.74-2.59-2.51-3.9-.81-1.38-1.54-2.76-2.17-4.1-.1-.22-.21-.44-.3-.65l-.19-.44c-.27-.69-.53-1.39-.77-2.09-.75-2.22-1.33-4.55-1.74-7.14-.17-1.64-.24-3.15-.23-4.64,0-.73.08-1.6.16-2.53.05-.56.1-1.12.14-1.68.26-1.57.56-2.99.93-4.33.28-1.02.59-2.02.93-2.97.15-.42.31-.84.47-1.26l.07-.17c.04-.08.08-.17.12-.26l.11-.26c.86-1.91,1.91-3.85,3.1-5.8.53-.87,1.11-1.74,1.71-2.61.31-.45.64-.9.96-1.34l.25-.34c.09-.11.18-.23.27-.35l.11-.14c2.76-3.45,6.08-6.85,9.88-10.13.86-.74,1.75-1.49,2.66-2.21l.91-.72c.48-.37.97-.73,1.46-1.09,1.91-1.4,3.93-2.78,6.01-4.1,3.95-2.51,8.26-4.9,12.8-7.11,1.93-.94,4.04-1.9,6.94-3.16"/>
      <path class="cls-1" d="M617.74,9.45c-5.6-3.66-13.21-3.4-18.5.61-.17.13-.34.26-.51.41-.23.16-.54.39-.88.69l-26.43,22.61c-4.87-4.47-10.01-8.44-15.36-11.86-14.28-9.14-30.33-14.16-46.42-14.51-16.31-.35-32.77,4.18-47.61,13.1-30.47,18.33-47.42,49.67-56.27,72.74-11.24,29.29-15.81,62.51-13.22,96.06.04.5.07,1.02.09,1.54.25,4.54.7,12.98,8.45,17.58,6.99,4.14,15.95,2.38,21.04-3.91.64-.55,1.28-1.1,1.92-1.65.49-.43.99-.86,1.49-1.28l141.9-121.4c1.13,1.83,2.23,3.71,3.29,5.63,1.62,2.92,3.18,5.98,4.63,9.08.65,1.39,1.34,2.93,2.11,4.72l.65,1.57c.38.93.74,1.86,1.1,2.79,2.45,6.4,4.58,13.18,6.33,20.15.88,3.51,1.67,7.1,2.35,10.66.34,1.77.65,3.56.94,5.33.14.89.28,1.79.41,2.67l.32,2.25c.96,7.69,1.51,15.29,1.65,22.59.13,7.37-.12,14.83-.75,22.16-.03.33-.07.66-.11.99-.23,2.01-.58,5.05.43,8.39,1.96,6.49,8.12,11.21,14.99,11.48.21,0,.43.01.64.01,5.61,0,10.86-2.88,13.81-7.63,2.26-3.63,2.55-7.39,2.74-9.88.02-.29.04-.59.07-.88,1.48-16.47,1.18-33.15-.89-49.59-2.13-16.92-5.88-32.73-11.15-46.99-5.03-13.63-11.23-26.03-18.48-36.98l13.04-11.16c2.33-2,4.66-4,7-5.98.62-.53,1.25-1.05,1.87-1.58,1.04-.88,2.09-1.76,3.12-2.65l.3-.26c2.39-2.05,6.38-5.47,7.2-11.58.86-6.4-1.94-12.56-7.31-16.06ZM425.88,148.02c.09-.8.19-1.59.29-2.39l.07-.58.22-1.58c.27-1.88.58-3.78.9-5.63.63-3.6,1.36-7.21,2.19-10.72,1.64-7.03,3.68-13.92,6.07-20.48.59-1.63,1.22-3.27,1.86-4.88.31-.79.64-1.57.95-2.34l.8-1.85c1.4-3.17,2.9-6.28,4.47-9.26,3.27-6.2,6.92-12,10.85-17.24l.96-1.25c.48-.6.96-1.2,1.45-1.79.92-1.12,1.86-2.21,2.79-3.26l10.48-10.15c.4-.33.81-.66,1.22-.99l.7-.54c.31-.23.63-.47.94-.7,2.54-1.85,5.2-3.56,7.91-5.07,5.98-3.33,10.9-5.13,17.55-6.4.8-.15,1.61-.28,2.44-.41l.63-.07c.23-.03.46-.05.7-.07,1.52-.15,3.09-.23,4.66-.26,1.54-.02,3.1.02,4.63.12.77.05,1.54.12,2.3.2.25.03.51.06.85.1h0c.18.03.37.06.56.08l.35.05c3.15.5,6.29,1.27,9.33,2.28.73.24,1.45.5,2.17.77.36.14.72.27,1.04.4l.59.24c1.31.56,2.69,1.22,4.09,1.94,2.66,1.37,5.31,2.96,7.85,4.7.61.41,1.21.84,1.8,1.27.3.22.6.44.88.65l.45.34c.83.64,1.65,1.31,2.46,2l-121.39,103.86c.22-3.74.53-7.44.95-11.08Z"/>
    </g>
  </g>
</svg>