<?xml version="1.0" encoding="UTF-8"?>
<svg id="Layer_2" xmlns="http://www.w3.org/2000/svg" viewBox="0 0 24.68 15.48">
  <defs>
    <style>
      .cls-1 {
        fill: #a9b8d2;
      }
    </style>
  </defs>
  <g id="Layer_2-2" data-name="Layer_2">
    <g>
      <path class="cls-1" d="M10.08,6.88c.38.21.77.37,1.1.61,1.23.91,1.6,2.19,1.51,3.65-.13,2.12-1.66,3.36-3.46,3.79-.87.21-1.76.23-2.65.23-2.09,0-4.17,0-6.26,0-.25,0-.31-.08-.31-.32,0-3.99,0-7.97,0-11.96,0-.87,0-1.74,0-2.61C0,.08.05,0,.25,0c2.52.01,5.04,0,7.57.04.95.01,1.87.22,2.71.73.99.61,1.41,1.54,1.48,2.65.1,1.53-.5,2.68-1.86,3.41-.02.01-.04.03-.06.05ZM3.39,8.4c-.02.08-.03.11-.03.15,0,1.28,0,2.56,0,3.83,0,.18.09.21.24.21.5,0,1,0,1.5,0,.83-.01,1.67-.01,2.5-.07.6-.04,1.13-.3,1.48-.82.88-1.29.05-3.14-1.51-3.26-1.17-.09-2.35-.04-3.53-.05-.22,0-.44,0-.65,0ZM3.37,2.61s-.02.08-.02.12c0,1.05,0,2.09,0,3.14,0,.19.08.23.25.23,1.09,0,2.19.01,3.28-.01.33,0,.68-.11.99-.23.56-.22.82-.68.85-1.26.04-.67-.08-1.28-.71-1.66-.42-.25-.89-.33-1.36-.33-1.02-.02-2.04-.01-3.06-.01-.07,0-.14.01-.22.02Z"/>
      <path class="cls-1" d="M24.42,11.85c-.29,1.02-.82,1.87-1.64,2.53-1.1.89-2.41,1.15-3.78,1.09-1.36-.06-2.61-.46-3.62-1.42-.93-.87-1.4-1.99-1.59-3.23-.23-1.53-.06-3.01.78-4.34,1.19-1.89,2.97-2.68,5.15-2.57,2.77.15,4.33,2.1,4.79,4.38.12.59.11,1.2.16,1.8.02.22-.06.31-.3.31-2.41,0-4.82,0-7.23,0-.45,0-.45,0-.41.45.13,1.47,1.15,2.37,2.62,2.35,1.02-.01,1.84-.37,2.37-1.28.03-.06.13-.12.19-.12.81,0,1.61,0,2.42,0,.02,0,.03.02.08.05ZM19.13,8.5s0,0,0,0c.72,0,1.44,0,2.17,0,.15,0,.28,0,.26-.22-.09-.76-.41-1.68-1.35-1.96-.39-.12-.82-.16-1.23-.14-1.15.07-1.98.83-2.21,1.96-.07.32-.04.35.28.35.69,0,1.39,0,2.08,0Z"/>
      <path class="cls-1" d="M22.27,2.51h-6.17c0-.44,0-.87,0-1.29,0-.21.15-.18.27-.18.79,0,1.58,0,2.36,0,1.07,0,2.15,0,3.22,0,.24,0,.33.07.31.31-.02.38,0,.76,0,1.17Z"/>
    </g>
  </g>
</svg>