<?xml version="1.0" encoding="UTF-8"?>
<svg id="Layer_2" xmlns="http://www.w3.org/2000/svg" viewBox="0 0 24.68 24.71">
  <defs>
    <style>
      .cls-1 {
        fill: #a9b8d2;
      }
    </style>
  </defs>
  <g id="Layer_2-2" data-name="Layer_2">
    <g>
      <path class="cls-1" d="M24.68,12.36c0,1.71,0,3.42,0,5.13,0,3.93-2.98,7.08-6.9,7.16-3.68.07-7.36.07-11.04,0C3.11,24.58.05,21.4.02,17.78c-.03-3.63-.03-7.26,0-10.9C.06,3.16,3.27.01,6.99,0c3.57,0,7.14,0,10.72,0,3.77,0,6.97,3.22,6.98,6.98,0,1.79,0,3.58,0,5.37ZM22.4,12.4c0-1.79,0-3.58,0-5.37-.01-2.59-2.12-4.68-4.71-4.68-3.56,0-7.12,0-10.69,0-.16,0-.32,0-.48.02-2.5.31-4.23,2.28-4.23,4.81,0,3.46,0,6.93,0,10.39,0,2.8,2.02,4.87,4.82,4.88,3.49.02,6.98.02,10.48,0,2.8-.02,4.81-2.08,4.81-4.89,0-1.72,0-3.44,0-5.16Z"/>
      <path class="cls-1" d="M12.34,18.81c-3.52,0-6.39-2.87-6.4-6.41-.01-3.53,2.88-6.41,6.43-6.41,3.53,0,6.41,2.89,6.4,6.41-.02,3.57-2.87,6.41-6.42,6.41ZM8.2,12.44c.07,2.35,1.98,4.18,4.28,4.1,2.31-.08,4.06-2,4-4.37-.06-2.17-2.02-3.98-4.24-3.92-2.25.06-4.11,1.99-4.04,4.19Z"/>
      <path class="cls-1" d="M18.95,7.25c-.83,0-1.5-.68-1.5-1.5,0-.82.69-1.49,1.51-1.49.83,0,1.49.67,1.48,1.51,0,.84-.66,1.49-1.5,1.49Z"/>
    </g>
  </g>
</svg>