<?xml version="1.0" encoding="UTF-8"?>
<svg id="Layer_2" xmlns="http://www.w3.org/2000/svg" viewBox="0 0 17.36 17.33">
  <defs>
    <style>
      .cls-1 {
        fill: #a9b8d2;
      }
    </style>
  </defs>
  <g id="Layer_2-2" data-name="Layer_2">
    <g>
      <path class="cls-1" d="M9.74,17.33h-3.59V5.76c.24,0,.47,0,.7,0,.84,0,1.68,0,2.53,0,.17,0,.23.05.22.22-.01.44,0,.88,0,1.35.05-.03.08-.04.09-.06.87-1.37,2.17-1.86,3.72-1.79.66.03,1.3.14,1.9.44.96.48,1.48,1.3,1.76,2.3.22.79.29,1.59.29,2.41,0,2.19,0,4.37,0,6.56,0,.04,0,.09-.01.15h-3.58c0-.11,0-.22,0-.32,0-1.72,0-3.43,0-5.15,0-.51-.01-1.02-.08-1.52-.19-1.4-1.02-1.85-2.3-1.64-.87.14-1.37.69-1.54,1.65-.07.39-.1.8-.11,1.2-.01,1.79,0,3.58,0,5.38,0,.13,0,.26,0,.42Z"/>
      <path class="cls-1" d="M3.87,17.33H.3V5.78h3.58v11.55Z"/>
      <path class="cls-1" d="M2.07,4.16C.91,4.16,0,3.24,0,2.08,0,.92.95-.02,2.1,0c1.16.02,2.08.96,2.07,2.11,0,1.14-.95,2.06-2.1,2.06Z"/>
    </g>
  </g>
</svg>